# xmcd
#
# Track frame offsets:
#	150
#	11518
#	28315
#	39241
#	52978
#	63036
#	73835
#	81405
#	92053
#	102140
#	118021
#	134458
#	144576
#	157337
#	167769
#	189937
#
# Disc length: 2988 seconds
#
# Revision: 1
# Processed by: cddbd v1.4PL0 Copyright (c) Steve Scherf et al.
# Submitted via: audiograbber 1.81.03
#
DISCID=da0baa10
DTITLE=Jerry Schneider Band - Lets's Have A Party
DYEAR=2002
DGENRE=Polka
TTITLE0=Let's Have A Party
TTITLE1=Living Next Door To Alice
TTITLE2=Green Meadow
TTITLE3=Resi, I Hol Di Mit-M Traktor Ab
TTITLE4=Summertime
TTITLE5=Patrona Bavarie
TTITLE6=Liechtensteiner
TTITLE7=Till We Meet Again
TTITLE8=Germanfest
TTITLE9=Black Gypsy
TTITLE10=Among My Souvenirs
TTITLE11=Cervene Vino (Red Wine)
TTITLE12=Das Schonste Bett 1st Die Elisabeth
TTITLE13=Zillertaler Hochzeitsblues
TTITLE14=Twinkle Toes
TTITLE15=Data Track
EXTD=
EXTT0=
EXTT1=
EXTT2=
EXTT3=
EXTT4=
EXTT5=
EXTT6=
EXTT7=
EXTT8=
EXTT9=
EXTT10=
EXTT11=
EXTT12=
EXTT13=
EXTT14=
EXTT15=
PLAYORDER=
